<?xml version="1.0" encoding="UTF-8"?>
<svg id="Camada_2" data-name="Camada 2" xmlns="http://www.w3.org/2000/svg" xmlns:xlink="http://www.w3.org/1999/xlink" viewBox="0 0 33 33">
  <defs>
    <style>
      .cls-1 {
        mask: url(#mask);
      }

      .cls-2 {
        fill: url(#Gradiente_sem_nome_5);
      }

      .cls-2, .cls-3, .cls-4, .cls-5 {
        stroke-width: 0px;
      }

      .cls-3 {
        fill: #d9d9d9;
      }

      .cls-4 {
        fill: #004684;
      }

      .cls-5 {
        fill: #fff;
      }
    </style>
    <mask id="mask" x="-6.88" y="-1.66" width="40.2" height="39.74" maskUnits="userSpaceOnUse">
      <g id="mask0_88_68" data-name="mask0 88 68">
        <rect class="cls-3" x="-16.82" y="12.73" width="31.38" height="1.31" transform="translate(-13.4 7.93) rotate(-70.91)"/>
        <rect class="cls-3" x="-14.21" y="13.6" width="31.38" height="1.31" transform="translate(-12.48 10.99) rotate(-70.91)"/>
        <rect class="cls-3" x="-11.6" y="14.48" width="31.38" height="1.31" transform="translate(-11.55 14.05) rotate(-70.91)"/>
        <rect class="cls-3" x="-8.99" y="15.36" width="31.38" height="1.31" transform="translate(-10.63 17.11) rotate(-70.91)"/>
        <rect class="cls-3" x="-6.38" y="16.24" width="31.38" height="1.31" transform="translate(-9.7 20.16) rotate(-70.91)"/>
        <rect class="cls-3" x="-3.77" y="17.12" width="31.38" height="1.31" transform="translate(-8.78 23.22) rotate(-70.91)"/>
        <rect class="cls-3" x="-1.16" y="18" width="31.38" height="1.31" transform="translate(-7.85 26.28) rotate(-70.91)"/>
        <rect class="cls-3" x="1.45" y="18.88" width="31.38" height="1.31" transform="translate(-6.92 29.33) rotate(-70.91)"/>
        <rect class="cls-3" x="4.06" y="19.75" width="31.38" height="1.31" transform="translate(-6 32.39) rotate(-70.91)"/>
        <rect class="cls-3" x="6.67" y="20.63" width="31.38" height="1.31" transform="translate(-5.07 35.45) rotate(-70.91)"/>
        <rect class="cls-3" x="9.28" y="21.51" width="31.38" height="1.31" transform="translate(-4.15 38.51) rotate(-70.91)"/>
        <rect class="cls-3" x="11.88" y="22.39" width="31.38" height="1.31" transform="translate(-3.22 41.56) rotate(-70.91)"/>
      </g>
    </mask>
    <linearGradient id="Gradiente_sem_nome_5" data-name="Gradiente sem nome 5" x1="0" y1="134.76" x2="28.31" y2="134.76" gradientTransform="translate(0 153.6) scale(1 -1)" gradientUnits="userSpaceOnUse">
      <stop offset=".33" stop-color="#92acce"/>
      <stop offset="1" stop-color="#004684"/>
    </linearGradient>
  </defs>
  <g id="Camada_1-2" data-name="Camada 1">
    <g>
      <g class="cls-1">
        <circle class="cls-2" cx="14.15" cy="18.85" r="14.15"/>
      </g>
      <g>
        <circle class="cls-4" cx="18.85" cy="14.15" r="14.15"/>
        <g>
          <path class="cls-5" d="M18.62,18.69c-.71,0-1.31-.13-1.81-.38-.5-.25-.9-.61-1.21-1.06-.32-.45-.55-.97-.69-1.57-.15-.59-.22-1.24-.22-1.93,0-.8.08-1.56.25-2.27s.43-1.35.77-1.9c.35-.55.79-.98,1.33-1.29s1.19-.47,1.95-.47c.55,0,1.09.08,1.61.24.52.16,1,.39,1.42.69l-1.02,1.5c-.31-.22-.64-.38-1-.48-.35-.1-.68-.15-.98-.15-.77,0-1.38.34-1.81,1.02-.44.68-.65,1.75-.63,3.23l-.41-.29c.23-.55.58-.99,1.07-1.32.48-.33,1.05-.49,1.71-.49s1.26.15,1.78.46c.51.31.92.73,1.21,1.27.29.54.44,1.13.44,1.79s-.16,1.23-.46,1.75c-.31.52-.75.92-1.31,1.21-.57.29-1.23.44-1.99.44ZM18.62,16.95c.33,0,.62-.07.88-.23.26-.15.46-.35.62-.61.15-.26.22-.56.22-.9s-.08-.64-.22-.91c-.15-.26-.36-.47-.62-.63-.26-.15-.55-.23-.88-.23s-.63.08-.89.23c-.27.16-.47.37-.62.63-.15.27-.22.57-.22.91s.08.64.22.9c.15.26.36.46.62.61.26.15.56.23.89.23Z"/>
          <path class="cls-5" d="M24.7,18.74c-.33,0-.61-.12-.85-.36-.24-.24-.35-.53-.35-.86s.12-.6.35-.84c.23-.24.52-.36.85-.36s.61.12.85.36c.24.24.35.52.35.84s-.12.62-.35.86c-.23.24-.52.36-.85.36Z"/>
        </g>
      </g>
    </g>
  </g>
</svg>